<?xml version="1.0" standalone="no"?><!DOCTYPE svg PUBLIC "-//W3C//DTD SVG 1.1//EN" "http://www.w3.org/Graphics/SVG/1.1/DTD/svg11.dtd"><svg t="1743055324996" class="icon" viewBox="0 0 1024 1024" version="1.1" xmlns="http://www.w3.org/2000/svg" p-id="4580" xmlns:xlink="http://www.w3.org/1999/xlink" width="200" height="200"><path d="M303.966316 437.894737L278.797474 512H214.932211l107.250526-288.067368h73.997474L502.999579 512H435.738947L410.677895 437.894737H303.966316z m94.10021-42.361263L358.938947 279.013053h-2.802526L317.008842 395.587368h81.111579z" p-id="4581" fill="#1296db"></path><path d="M42.091789 166.319158A115.226947 115.226947 0 0 1 157.318737 51.092211h403.294316a115.226947 115.226947 0 0 1 115.226947 115.226947v172.840421h172.840421a115.226947 115.226947 0 0 1 115.173053 115.226947v403.294316a115.226947 115.226947 0 0 1-115.173053 115.226947H445.386105a115.226947 115.226947 0 0 1-115.226947-115.226947v-172.840421H157.318737A115.226947 115.226947 0 0 1 42.037895 569.613474V166.319158z m115.226948-57.613474a57.613474 57.613474 0 0 0-57.613474 57.667369v403.240421a57.613474 57.613474 0 0 0 57.613474 57.613473h403.294316a57.613474 57.613474 0 0 0 57.613473-57.613473V166.319158A57.613474 57.613474 0 0 0 560.505263 108.705684H157.372632z m411.216842 575.865263c11.156211 17.300211 23.174737 33.576421 36.325053 48.720842-43.115789 33.145263-96.417684 57.667368-159.528421 74.428632 10.293895 12.503579 26.031158 36.594526 32.013473 49.960421 64.835368-20.695579 119.808-48.613053 166.265263-86.069895 44.732632 38.265263 100.190316 67.098947 168.798316 84.776421 7.653053-14.605474 23.875368-38.804211 36.271158-51.253894-64.835368-14.551579-118.568421-39.989895-162.492632-73.997474 39.235368-43.008 70.386526-95.124211 93.399579-158.827789h69.093053V512H675.84v60.362105h44.032c-18.324211 48.559158-42.576842 89.034105-73.296842 122.664421a349.507368 349.507368 0 0 1-23.875369-28.348631 114.526316 114.526316 0 0 1-54.16421 17.893052z" p-id="4582" fill="#1296db"></path></svg>